<svg width="20" height="20" viewBox="0 0 20 20" fill="none" xmlns="http://www.w3.org/2000/svg">
<path d="M15 4.58333C15 5.27333 14.44 5.83333 13.75 5.83333C13.06 5.83333 12.5 5.27333 12.5 4.58333C12.5 3.89333 13.06 3.33333 13.75 3.33333C14.44 3.33333 15 3.89333 15 4.58333ZM20 5.41667V6.66667L18.3333 7.38083V9.16667C18.3333 13.355 15.51 16.8958 11.6667 17.9867V20H10V18.295C9.72583 18.32 9.4475 18.3333 9.16667 18.3333C8.88583 18.3333 8.6075 18.32 8.33333 18.295V20H6.66667V17.9867C2.82333 16.8958 0 13.355 0 9.16667V5.83333H1.66667V6.25C1.66667 7.85833 2.975 9.16667 4.58333 9.16667C6.19167 9.16667 7.5 7.85833 7.5 6.25V5.41667C7.5 2.43 9.93 0 12.9167 0C15.6542 0 17.9233 2.04083 18.2833 4.68083L20 5.41667ZM3.58333 14.1667H3.75C5.8175 14.1667 7.5 12.4842 7.5 10.4167V9.7825C6.70667 10.4383 5.69 10.8333 4.58333 10.8333C3.48917 10.8333 2.48333 10.4475 1.69417 9.805C1.83583 11.4733 2.52583 12.9875 3.58333 14.1667ZM16.6667 5.41667C16.6667 3.34917 14.9842 1.66667 12.9167 1.66667C10.8492 1.66667 9.16667 3.34917 9.16667 5.41667V10.4167C9.16667 12.8558 7.545 14.9225 5.32417 15.5983C6.44917 16.2733 7.76167 16.6667 9.16667 16.6667C13.3025 16.6667 16.6667 13.3025 16.6667 9.16667V5.41667Z" fill="#058264"/>
</svg>
