<svg width="28" height="28" viewBox="0 0 28 28" fill="none" xmlns="http://www.w3.org/2000/svg">
<path d="M12.8333 14H19.8333V16.3333H12.8333V14ZM24.5 2.33333V24.5C24.5 26.4297 22.9297 28 21 28H7C5.07033 28 3.5 26.4297 3.5 24.5V2.33333H9.53283C10.0147 0.975333 11.312 0 12.8333 0H15.1667C16.688 0 17.9853 0.975333 18.4672 2.33333H24.5ZM22.1667 4.66667H16.3333V3.5C16.3333 2.856 15.8095 2.33333 15.1667 2.33333H12.8333C12.1905 2.33333 11.6667 2.856 11.6667 3.5V4.66667H5.83333V24.5C5.83333 25.144 6.35717 25.6667 7 25.6667H21C21.6428 25.6667 22.1667 25.144 22.1667 24.5V4.66667ZM12.8333 11.6667H19.8333V9.33333H12.8333V11.6667ZM12.8333 21H19.8333V18.6667H12.8333V21ZM8.16667 11.6667H10.5V9.33333H8.16667V11.6667ZM8.16667 16.3333H10.5V14H8.16667V16.3333ZM8.16667 21H10.5V18.6667H8.16667V21Z" fill="#FFA241"/>
</svg>
