<svg width="31" height="28" viewBox="0 0 31 28" fill="none" xmlns="http://www.w3.org/2000/svg">
<path d="M29.6076 0.888186C28.7241 0.162 27.5706 -0.13814 26.4327 0.0640726L18.4502 1.49355C17.2709 1.70467 16.2453 2.29986 15.5 3.13288C14.7534 2.29986 13.7291 1.70467 12.5485 1.49355L4.56862 0.0628009C3.43583 -0.141956 2.27721 0.159456 1.39242 0.886915C0.507625 1.61437 0 2.6814 0 3.81582V25.225L15.5 28L31 25.225V3.8171C31 2.68267 30.4924 1.61437 29.6076 0.888186ZM14.2083 25.1843L2.58333 23.1036V3.8171C2.58333 3.29948 2.87396 2.98281 3.04704 2.84037C3.22012 2.69793 3.58308 2.47155 4.10621 2.56567L12.0874 3.99515C13.3171 4.21516 14.2083 5.26693 14.2083 6.49801V25.1843ZM28.4167 23.1036L16.7917 25.1843V6.49801C16.7917 5.2682 17.6829 4.21516 18.9126 3.99515L26.8951 2.56567C27.4208 2.47537 27.7812 2.69793 27.953 2.84037C28.1273 2.98281 28.4167 3.29948 28.4167 3.8171V23.1036ZM11.2685 10.2052L13.0742 12.0239L9.05329 16.1203C8.46042 16.7231 7.47746 16.7193 6.88975 16.1114L4.25862 13.3745L6.05017 11.5419L7.9825 13.5526L11.2672 10.2065L11.2685 10.2052ZM26.877 11.2379L24.561 13.5182L26.877 15.7985L25.0506 17.5968L22.7346 15.3165L20.4187 17.5968L18.5922 15.7985L20.9082 13.5182L18.5922 11.2379L20.4187 9.43964L22.7346 11.7199L25.0506 9.43964L26.877 11.2379Z" fill="#2E89A7"/>
</svg>
