<svg width="28" height="28" viewBox="0 0 28 28" fill="none" xmlns="http://www.w3.org/2000/svg">
<g clip-path="url(#clip0_139_2188)">
<path d="M4.66667 19.8333H12.8333V22.1667H4.66667V19.8333ZM12.8333 15.1667H4.66667V17.5H12.8333V15.1667ZM28 15.8958V20.4587C28 25.1603 23.6087 27.293 22.2635 27.8343L21.5297 28.1295L20.825 27.7725C19.5008 27.1122 15.1667 24.6237 15.1667 20.4575V15.8947C15.1667 14.889 15.8095 13.9988 16.765 13.6827L21.5833 12.0855L26.4017 13.6827C27.3572 13.9988 28 14.889 28 15.8947V15.8958ZM25.6667 15.8958L21.5833 14.5448L17.4988 15.8982V20.4587C17.4988 23.1198 20.5707 24.9958 21.637 25.5675C22.8398 25.0367 25.6667 23.4698 25.6667 20.4587V15.8958ZM16.8922 28H0V3.5C0 1.57033 1.57033 0 3.5 0H14.483L23.3333 8.85033V10.5H12.8333V2.33333H3.5C2.856 2.33333 2.33333 2.856 2.33333 3.5V25.6667H14.6242C15.3078 26.5918 16.1105 27.3688 16.8922 28ZM15.1667 8.16667H19.3503L15.1667 3.983V8.16667Z" fill="#FFCF66"/>
</g>
<defs>
<clipPath id="clip0_139_2188">
<rect width="28" height="28" fill="white"/>
</clipPath>
</defs>
</svg>
