<svg width="20" height="20" viewBox="0 0 20 20" fill="none" xmlns="http://www.w3.org/2000/svg">
<path d="M17.8892 1.66675C18.1534 1.17422 18.3159 0.61003 18.3159 0H16.6491C16.6491 0.919212 16.0216 1.66675 15.2499 1.66675H13.0473C12.2756 1.66675 11.6481 0.919212 11.6481 0H9.98132C9.98132 0.61003 10.1438 1.17422 10.408 1.66675H8.31457C8.31457 2.86431 9.15795 3.86269 10.283 4.1077L10.6239 5.83362H4.14854C3.43683 5.83362 2.7718 6.14113 2.29678 6.66783L2.29345 6.66449L0 8.82043L1.14089 10.0347L1.64841 9.55713V20.0001H6.64866V18.6651C8.22123 18.3442 9.45963 17.1483 9.84548 15.8333H11.6489V20.0001H16.6491V13.3332H14.9824V18.3334H13.3156V14.1665H4.98191V18.3334H3.31516V9.10794C3.84269 9.65464 4.57689 9.99965 5.3986 9.99965C6.867 9.99965 8.06956 8.91127 8.27374 7.49953H10.9539L11.2322 8.90794C10.9764 9.20128 10.8155 9.57963 10.8155 9.99965C10.8155 10.9205 11.5614 11.6664 12.4823 11.6664H15.8158C16.7367 11.6664 17.4825 10.9205 17.4825 9.99965C17.4825 9.57963 17.3217 9.20128 17.0658 8.90794L18.015 4.10603C19.1393 3.86186 19.9826 2.86347 19.9826 1.66591H17.8892V1.66675ZM13.0481 3.3335H15.2507C15.7091 3.3335 16.14 3.21599 16.5308 3.01931L15.4808 8.33374H12.819L11.7689 3.01931C12.1598 3.21599 12.5906 3.3335 13.049 3.3335H13.0481Z" fill="#058264"/>
</svg>
