<svg width="28" height="28" viewBox="0 0 28 28" fill="none" xmlns="http://www.w3.org/2000/svg">
<g clip-path="url(#clip0_139_2190)">
<path d="M11.0087 16.3333H12.8333C12.8333 19.8333 12.257 22.0407 11.8942 23.3333H9.4605C9.62267 22.8083 10.0567 21.3255 10.311 19.6852L9.13267 18.3855C9.93183 17.6622 10.6505 16.7755 10.6575 16.7662L11.0087 16.3333ZM28 3.5V25.6667H20.9825C21.2077 24.9935 21.4515 24.2142 21.6965 23.3333H25.6667V8.16667C24.9503 8.16667 24.2912 7.89833 23.765 7.448C23.4162 7.14933 22.9857 7 22.5552 7C22.1247 7 21.6942 7.14933 21.3453 7.448C20.8192 7.89833 20.16 8.16667 19.4437 8.16667C18.7273 8.16667 18.0682 7.89833 17.542 7.448C17.1932 7.14933 16.7627 7 16.3322 7C15.9017 7 15.4712 7.14933 15.1223 7.448C14.5962 7.89833 13.937 8.16667 13.2207 8.16667C12.5043 8.16667 11.8452 7.89833 11.319 7.448C10.9702 7.14933 10.5397 7 10.1092 7C9.67867 7 9.24817 7.14933 8.89933 7.448C8.37317 7.89833 7.714 8.16667 6.99767 8.16667V3.5C6.99767 1.57033 8.568 0 10.4977 0H24.4977C26.4273 0 27.9977 1.57033 27.9977 3.5H28ZM25.6667 3.5C25.6667 2.85717 25.1428 2.33333 24.5 2.33333H10.5C9.85717 2.33333 9.33333 2.85717 9.33333 3.5V4.7425C9.58883 4.69467 9.84783 4.66667 10.1115 4.66667C11.1102 4.66667 12.0797 5.02483 12.8392 5.67583C12.9605 5.77967 13.09 5.83333 13.2218 5.83333C13.3537 5.83333 13.4832 5.78083 13.6045 5.67583C14.3652 5.02483 15.3335 4.66667 16.3322 4.66667C17.3308 4.66667 18.3003 5.02483 19.0598 5.67583C19.1812 5.77967 19.3107 5.83333 19.4425 5.83333C19.5743 5.83333 19.7038 5.78083 19.8252 5.67583C20.5858 5.02483 21.5542 4.66667 22.5528 4.66667C23.5515 4.66667 24.521 5.02483 25.2805 5.67583C25.4018 5.77967 25.5313 5.83333 25.6632 5.83333V3.5H25.6667ZM20.9988 12.1882C21 19.985 18.0215 27.0002 17.8943 27.2953L17.591 28H0V26.1602C0.753667 24.773 2.919 18.207 3.0065 12.2325L3.01467 11.7028L3.5875 11.2175C4.74367 10.2585 6.42133 10.2585 7.57517 11.2175C8.2845 11.8055 9.30183 11.8055 10.01 11.2175C11.165 10.2597 12.8427 10.2597 13.9977 11.2175C14.707 11.8055 15.7243 11.8055 16.4325 11.2175C17.5875 10.2597 19.2652 10.2597 20.4202 11.2175L20.9732 11.627L20.9965 12.1882H20.9988ZM18.6608 12.8683C18.4123 12.7948 18.1312 12.8438 17.9247 13.0142C16.3928 14.2882 14.0443 14.2882 12.5102 13.0142C12.222 12.775 11.7892 12.7773 11.5022 13.0142C9.97033 14.2882 7.62183 14.2882 6.08767 13.0142C5.87417 12.8368 5.58017 12.7913 5.32583 12.8777C5.15083 17.9655 3.745 23.0965 2.77667 25.6678H16.0312C16.7358 23.807 18.536 18.5243 18.6608 12.8683Z" fill="#2E89A7"/>
</g>
<defs>
<clipPath id="clip0_139_2190">
<rect width="28" height="28" fill="white"/>
</clipPath>
</defs>
</svg>
