<svg width="28" height="28" viewBox="0 0 28 28" fill="none" xmlns="http://www.w3.org/2000/svg">
<g clip-path="url(#clip0_137_1975)">
<path d="M10.5 14C14.3605 14 17.5 10.8605 17.5 7C17.5 3.1395 14.3605 0 10.5 0C6.6395 0 3.5 3.1395 3.5 7C3.5 10.8605 6.6395 14 10.5 14ZM10.5 2.33333C13.0737 2.33333 15.1667 4.42633 15.1667 7C15.1667 9.57367 13.0737 11.6667 10.5 11.6667C7.92633 11.6667 5.83333 9.57367 5.83333 7C5.83333 4.42633 7.92633 2.33333 10.5 2.33333ZM5.83333 16.3333H12.5533C12.096 17.0158 11.7938 17.8103 11.6993 18.6667H5.83333C3.90367 18.6667 2.33333 20.237 2.33333 22.1667V28H0V22.1667C0 18.9502 2.61683 16.3333 5.83333 16.3333ZM25.0833 16.3333H24.5V15.75C24.5 14.7852 23.7148 14 22.75 14H19.25C18.2852 14 17.5 14.7852 17.5 15.75V16.3333H16.9167C15.309 16.3333 14 17.6423 14 19.25V28H28V19.25C28 17.6423 26.691 16.3333 25.0833 16.3333ZM16.9167 18.6667H25.0833C25.4053 18.6667 25.6667 18.928 25.6667 19.25V21H16.3333V19.25C16.3333 18.928 16.5947 18.6667 16.9167 18.6667ZM16.3333 25.6667V23.3333H19.8333V24.5H22.1667V23.3333H25.6667V25.6667H16.3333Z" fill="#FFA13F"/>
</g>
<defs>
<clipPath id="clip0_137_1975">
<rect width="28" height="28" fill="white"/>
</clipPath>
</defs>
</svg>
