<svg width="20" height="20" viewBox="0 0 20 20" fill="none" xmlns="http://www.w3.org/2000/svg">
<path d="M13.75 9.16667C13.06 9.16667 12.5 8.60667 12.5 7.91667C12.5 7.22667 13.06 6.66667 13.75 6.66667C14.44 6.66667 15 7.22667 15 7.91667C15 8.60667 14.44 9.16667 13.75 9.16667ZM20 8.14V10.1942C20 10.1942 17.6283 14.8933 13.5658 16.7117C13.4875 17.0133 13.4 17.3117 13.3 17.6025C12.8067 19.0367 11.445 20 9.91083 20H8.69167L9.13417 18.8642C9.56083 17.7683 10.5975 15.0633 10.9983 13.6117C11.2342 12.8408 11.5383 11.24 11.6333 9.91417C12.0517 10.3567 12.6025 10.6675 13.2267 10.78C13.0817 12.0658 12.8125 13.3767 12.5983 14.0767C12.4492 14.6175 12.2767 15.2117 12.1733 15.535C12.9467 15.1833 13.6767 14.7625 14.3417 14.2575C16.7475 12.4317 18.0058 10.3708 18.3317 9.79V8.54167C18.0075 7.9625 16.7492 5.90083 14.3417 4.07417C13.6567 3.55417 12.8992 3.12083 12.0958 2.76333L12.5825 4.30417C12.6725 4.58833 12.745 4.8775 12.8192 5.16583C12.2242 5.3675 11.7125 5.74583 11.3592 6.25083C11.2592 5.765 11.1433 5.28167 10.9933 4.80667L10.1325 2.08167C9.31167 1.87167 8.46083 1.7425 7.59167 1.695L8.41583 4.30417C8.91333 5.87917 9.165 7.515 9.165 9.16667C9.165 10.86 8.91 12.56 8.42917 14.085L7.54083 16.6342C7.76833 16.6192 7.99667 16.6008 8.22333 16.5775C7.95833 17.285 7.73167 17.8725 7.56417 18.3025C7.32083 18.3158 7.07833 18.3233 6.8375 18.3283V18.3342H1.36333L2.88083 13.5275C3.06833 12.9342 3.29167 12.0767 3.46583 11.24L0 12.5C0 12.5 0.833333 10.8333 0.833333 9.16667C0.833333 7.5 0 5.83333 0 5.83333L3.5025 7.10667C3.30333 6.1525 3.03333 5.28833 2.88 4.80583L1.36333 0H6.86417C10.0033 0 13.0175 0.975833 15.3517 2.7475C18.6575 5.31 19.8017 7.765 20 8.14ZM3.63667 16.6667H5.765L6.84833 13.5592C7.27167 12.2183 7.49917 10.6908 7.49917 9.16667C7.49917 7.685 7.27333 6.21833 6.82667 4.80667L5.835 1.66667H3.635L4.46833 4.30417C4.90917 5.69917 5.415 7.5125 5.415 9.16667C5.415 10.5767 4.77667 13.0517 4.46833 14.0292L3.635 16.6667H3.63667Z" fill="#058264"/>
</svg>
