<svg width="14" height="20" viewBox="0 0 14 20" fill="none" xmlns="http://www.w3.org/2000/svg">
<path d="M12.5927 7.68879L11.232 4.19896C10.9678 3.52066 10.8328 2.80736 10.8328 2.07907V1.66659H11.6661V0H1.66742V1.66659H2.50071V2.07907C2.50071 2.80736 2.36655 3.51983 2.10156 4.19896L0.740797 7.68879C0.249154 8.94873 0 10.2728 0 11.6244V19.9999H13.3327V11.6244C13.3327 10.2728 13.0844 8.94873 12.5927 7.68879ZM8.33376 11.6661V14.166H1.66742V11.6661H8.33376ZM11.6669 18.3324H1.66742V15.8326H10.0003V9.99951H1.81491C1.91907 9.41954 2.0774 8.84873 2.29405 8.29376L3.65482 4.80393C3.99481 3.93147 4.1673 3.01485 4.1673 2.07823V1.66575H9.16705V2.07823C9.16705 3.01402 9.33954 3.93147 9.67953 4.80393L11.0403 8.29376C11.4561 9.35954 11.6669 10.4803 11.6669 11.6236V18.3324Z" fill="#058264"/>
</svg>
