<svg width="20" height="18" viewBox="0 0 20 18" fill="none" xmlns="http://www.w3.org/2000/svg">
<path d="M20 7.50486H18.9858C18.7317 6.36153 18.215 5.32486 17.47 4.49153C16.5942 3.51153 15.4483 2.86903 14.1658 2.62069V0.00485966C12.61 -0.0834737 11.3042 1.04319 10.9358 2.50486H6.66583C4.85333 2.50486 3.2075 3.23236 2.00417 4.41069C1.77917 3.90069 1.66583 3.26403 1.66583 2.50486H0C0 3.86903 0.301667 4.98319 0.899167 5.83153C0.3275 6.81403 0 7.95569 0 9.17153C0 11.5465 1.2925 13.7549 3.33333 14.9382V17.5049H8.33333V15.8382H10V17.5049H15V15.3499C16.6833 14.6665 17.9992 13.3165 18.6725 11.6715H20V7.50486ZM17.5 9.17153C17.5 11.3657 16.0308 13.3357 13.9292 13.9615L13.3333 14.139V15.8382H11.6667V14.1715H6.66667V15.8382H5V13.9099L4.525 13.684C2.78917 12.8574 1.66667 11.0865 1.66667 9.17153C1.66667 6.41403 3.90917 4.17153 6.66667 4.17153H12.9483C14.2575 4.17153 15.3917 4.66653 16.2283 5.60236C17.0483 6.52069 17.5 7.78819 17.5 9.17153ZM15 7.92153C15 8.61153 14.44 9.17153 13.75 9.17153C13.06 9.17153 12.5 8.61153 12.5 7.92153C12.5 7.23153 13.06 6.67153 13.75 6.67153C14.44 6.67153 15 7.23153 15 7.92153Z" fill="#058264"/>
</svg>
