<svg width="28" height="28" viewBox="0 0 28 28" fill="none" xmlns="http://www.w3.org/2000/svg">
<g clip-path="url(#clip0_139_2180)">
<path d="M22.1666 25.6667H24.4999V28.0001H22.1666V25.6667ZM25.6666 24.5001H27.9999V22.1667H25.6666V24.5001ZM22.1666 24.5001H24.4999V22.1667H22.1666V24.5001ZM15.1666 15.1667H20.9999V21.0001H15.1666V15.1667ZM17.4999 18.6667H18.6666V17.5001H17.4999V18.6667ZM15.1666 22.1667H20.9999V28.0001H15.1666V22.1667ZM17.4999 25.6667H18.6666V24.5001H17.4999V25.6667ZM27.9999 15.1667V21.0001H22.1666V15.1667H27.9999ZM25.6666 17.5001H24.4999V18.6667H25.6666V17.5001ZM5.06672 18.2666C1.42788 14.6277 1.42788 8.70689 5.06672 5.06805C6.82955 3.30522 9.17339 2.33455 11.6666 2.33455C14.1597 2.33455 16.5036 3.30522 18.2664 5.06805C20.0292 6.83089 20.9999 9.17472 20.9999 11.6679C20.9999 12.0622 20.9672 12.4496 20.9194 12.8346H23.2761C23.3146 12.4496 23.3332 12.0599 23.3332 11.6679C23.3332 8.55172 22.1199 5.62222 19.9161 3.41839C17.7122 1.21455 14.7827 0.0012207 11.6666 0.0012207C8.55039 0.0012207 5.61972 1.21339 3.41705 3.41722C-1.13178 7.96605 -1.13178 15.3674 3.42638 19.9244L11.6666 27.9849L12.8332 26.8427V25.8966L5.06672 18.2666ZM16.1676 12.8334C16.2656 12.4577 16.3332 12.0716 16.3332 11.6667C16.3332 9.09305 14.2402 7.00005 11.6666 7.00005C9.09289 7.00005 6.99988 9.09305 6.99988 11.6667C6.99988 14.2404 9.09289 16.3334 11.6666 16.3334C12.0714 16.3334 12.4576 16.2657 12.8332 16.1677V13.6757C12.4891 13.8764 12.0936 14.0001 11.6666 14.0001C10.3797 14.0001 9.33322 12.9536 9.33322 11.6667C9.33322 10.3799 10.3797 9.33339 11.6666 9.33339C12.9534 9.33339 13.9999 10.3799 13.9999 11.6667C13.9999 12.0937 13.8762 12.4892 13.6756 12.8334H16.1676Z" fill="#30C060"/>
</g>
<defs>
<clipPath id="clip0_139_2180">
<rect width="28" height="28" fill="white"/>
</clipPath>
</defs>
</svg>
