<svg width="28" height="28" viewBox="0 0 28 28" fill="none" xmlns="http://www.w3.org/2000/svg">
<g clip-path="url(#clip0_139_2182)">
<path d="M19.1333 28H19.0948C18.7995 27.9952 18.5083 27.9307 18.2386 27.8104C17.9689 27.6901 17.7264 27.5165 17.5256 27.3L13.8296 23.4943L15.5166 21.882L19.1391 25.6153L26.2336 18.5197L27.8833 20.1658L20.6954 27.3548C20.4909 27.5607 20.2475 27.7238 19.9792 27.8346C19.711 27.9453 19.4234 28.0016 19.1333 28Z" fill="#E55A51"/>
<path d="M12.8332 7V12.3503L9.67505 15.5085L11.3247 17.1582L15.1665 13.3163V7H12.8332Z" fill="#E55A51"/>
<path d="M14.0001 0C10.4086 0.0301099 6.96603 1.43937 4.38438 3.93633C1.80273 6.4333 0.27947 9.82695 0.129631 13.4154C-0.0202076 17.0039 1.21484 20.5128 3.57934 23.2162C5.94384 25.9197 9.25693 27.6111 12.8334 27.9405V25.6072C10.535 25.378 8.35616 24.4721 6.57269 23.0043C4.78923 21.5364 3.48126 19.5725 2.81431 17.361C2.14735 15.1495 2.15138 12.7899 2.82588 10.5808C3.50038 8.3716 4.81504 6.41215 6.6035 4.95038C8.39197 3.4886 10.5739 2.5902 12.8731 2.36885C15.1723 2.1475 17.4855 2.61315 19.52 3.70687C21.5545 4.8006 23.2188 6.47325 24.3024 8.51317C25.3859 10.5531 25.8401 12.8686 25.6072 15.1667H27.9406C27.9732 14.7805 28.0001 14.3943 28.0001 14C27.9961 10.2882 26.5198 6.72958 23.8951 4.10494C21.2705 1.4803 17.7119 0.00401459 14.0001 0Z" fill="#E55A51"/>
</g>
<defs>
<clipPath id="clip0_139_2182">
<rect width="28" height="28" fill="white"/>
</clipPath>
</defs>
</svg>
