<svg width="20" height="20" viewBox="0 0 20 20" fill="none" xmlns="http://www.w3.org/2000/svg">
<g clip-path="url(#clip0_137_1889)">
<path d="M8.475 12.7033L9.125 12.0533L7.94667 10.875L7.29667 11.525C6.85277 11.2296 6.35583 11.023 5.83333 10.9167V10H4.16667V10.9167C3.64423 11.0228 3.14729 11.2291 2.70333 11.5242L2.05333 10.8742L0.875 12.0533L1.525 12.7033C1.22959 13.1472 1.023 13.6442 0.916667 14.1667H0V15.8333H0.916667C1.02275 16.3558 1.22905 16.8527 1.52417 17.2967L0.874167 17.9467L2.05333 19.125L2.70333 18.475C3.14723 18.7704 3.64417 18.977 4.16667 19.0833V20H5.83333V19.0833C6.35577 18.9773 6.85271 18.771 7.29667 18.4758L7.94667 19.1258L9.125 17.9475L8.475 17.2975C8.77051 16.8534 8.9771 16.3561 9.08333 15.8333H10V14.1667H9.08333C8.977 13.6442 8.77041 13.1472 8.475 12.7033ZM5 17.5C4.33696 17.5 3.70107 17.2366 3.23223 16.7678C2.76339 16.2989 2.5 15.6631 2.5 15C2.5 14.337 2.76339 13.7011 3.23223 13.2322C3.70107 12.7634 4.33696 12.5 5 12.5C5.66304 12.5 6.29893 12.7634 6.76777 13.2322C7.23661 13.7011 7.5 14.337 7.5 15C7.5 15.6631 7.23661 16.2989 6.76777 16.7678C6.29893 17.2366 5.66304 17.5 5 17.5ZM20 9.16668C20 8.50364 19.7366 7.86775 19.2678 7.39891C18.7989 6.93007 18.163 6.66668 17.5 6.66668H16.6667V4.16668H15V6.66668H12.9617L9.53 1.17501C9.30627 0.81452 8.994 0.51729 8.62291 0.311616C8.25183 0.105942 7.83427 -0.00132986 7.41 1.2444e-05H2.5V6.66668C1.83696 6.66668 1.20107 6.93007 0.732233 7.39891C0.263392 7.86775 0 8.50364 0 9.16668L0 10.6008C0.477835 10.0575 1.04071 9.59541 1.66667 9.23251V9.16668C1.66667 8.94567 1.75446 8.7337 1.91074 8.57742C2.06702 8.42114 2.27899 8.33335 2.5 8.33335H17.5C17.721 8.33335 17.933 8.42114 18.0893 8.57742C18.2455 8.7337 18.3333 8.94567 18.3333 9.16668V10.5558L16.7042 12.7275C11.0967 11.0608 9.57167 19.6442 15.4167 20C16.1496 19.9912 16.8641 19.7688 17.4725 19.36C18.081 18.9513 18.557 18.374 18.8423 17.6988C19.1277 17.0236 19.2099 16.2799 19.0789 15.5587C18.948 14.8375 18.6095 14.1701 18.105 13.6383L20 11.1108V9.16668ZM4.16667 1.66668H7.41C7.55132 1.66619 7.6904 1.70193 7.81397 1.7705C7.93754 1.83907 8.04147 1.93817 8.11583 2.05835L11 6.66668H4.16667V1.66668ZM15.4167 18.3333C14.8641 18.3333 14.3342 18.1139 13.9435 17.7232C13.5528 17.3325 13.3333 16.8025 13.3333 16.25C13.3333 15.6975 13.5528 15.1676 13.9435 14.7769C14.3342 14.3862 14.8641 14.1667 15.4167 14.1667C15.9692 14.1667 16.4991 14.3862 16.8898 14.7769C17.2805 15.1676 17.5 15.6975 17.5 16.25C17.5 16.8025 17.2805 17.3325 16.8898 17.7232C16.4991 18.1139 15.9692 18.3333 15.4167 18.3333Z" fill="#058264"/>
</g>
<defs>
<clipPath id="clip0_137_1889">
<rect width="20" height="20" fill="white"/>
</clipPath>
</defs>
</svg>
